<?xml version="1.0" standalone="no"?>
<!DOCTYPE svg PUBLIC "-//W3C//DTD SVG 20010904//EN"
 "http://www.w3.org/TR/2001/REC-SVG-20010904/DTD/svg10.dtd">
<svg version="1.0" xmlns="http://www.w3.org/2000/svg"
 width="1024.000000pt" height="1024.000000pt" viewBox="0 0 1024.000000 1024.000000"
 preserveAspectRatio="xMidYMid meet">

<g transform="translate(0.000000,1024.000000) scale(0.100000,-0.100000)"
fill="#000000" stroke="none">
<path d="M5475 8599 c-214 -27 -533 -64 -707 -84 -175 -20 -352 -45 -395 -55
-211 -54 -333 -170 -383 -363 -10 -41 -23 -117 -29 -169 -22 -193 -61 -640
-61 -692 0 -29 -3 -68 -6 -85 -7 -36 6 -31 -254 -86 -502 -104 -745 -188 -817
-282 -76 -99 -11 -224 165 -316 137 -72 410 -146 605 -163 42 -4 77 -8 77 -10
0 -2 -74 -76 -163 -166 -186 -186 -284 -296 -402 -453 -122 -163 -124 -169
-99 -276 5 -23 -8 -43 -94 -145 -55 -66 -122 -143 -149 -172 l-48 -54 -71 89
c-217 268 -533 529 -799 659 -269 131 -417 146 -445 46 -14 -55 3 -112 109
-358 113 -264 173 -425 211 -567 61 -230 80 -416 60 -592 -29 -262 -91 -472
-235 -795 -87 -193 -100 -252 -70 -309 17 -34 32 -41 91 -41 93 0 284 86 484
217 251 165 443 334 669 590 l73 83 32 -22 c17 -12 91 -69 164 -127 l132 -106
-40 -34 c-52 -43 -74 -84 -66 -126 13 -66 425 -486 664 -676 168 -134 223
-163 295 -157 94 8 302 104 476 219 l74 49 57 -15 c164 -43 294 -57 552 -62
l256 -6 -13 -38 c-56 -158 -99 -531 -112 -959 -7 -251 -3 -286 32 -324 49 -53
109 -30 275 105 107 87 314 295 408 411 207 255 358 552 461 908 20 69 40 130
44 137 4 6 72 45 152 87 598 311 1240 788 1573 1170 198 226 332 444 332 538
0 33 -30 78 -56 84 -15 4 -110 2 -213 -5 -207 -12 -336 -13 -395 -3 l-40 7
105 59 c144 82 417 247 487 295 99 67 134 122 114 178 -34 99 -346 430 -584
621 -206 164 -453 322 -654 417 -42 20 -74 38 -71 41 3 3 63 20 133 39 255 66
459 154 594 256 135 102 186 180 178 270 -7 65 -31 97 -100 132 -106 54 -164
59 -736 64 -381 4 -524 8 -527 17 -15 47 -233 627 -275 731 -68 171 -102 234
-161 295 -55 57 -144 104 -228 120 -96 18 -239 9 -636 -41z m607 -209 c54 -15
95 -54 130 -124 41 -80 209 -526 203 -537 -6 -8 -21 -10 -315 -39 -313 -31
-1197 -141 -1684 -210 -115 -17 -215 -30 -223 -30 -17 0 -17 55 2 283 25 299
52 385 138 437 71 44 144 56 807 130 151 17 397 46 545 64 301 38 344 40 397
26z m1676 -1140 c34 -7 62 -16 62 -20 0 -16 -74 -72 -140 -105 -108 -54 -204
-90 -335 -123 -238 -61 -343 -73 -880 -107 -668 -42 -1265 -116 -2053 -256
-506 -90 -628 -104 -782 -89 -195 17 -375 58 -478 108 -19 9 -35 22 -35 27 1
31 386 135 829 224 898 180 1967 313 2864 355 169 8 887 -3 948 -14z m-1073
-654 c408 -75 779 -251 1145 -545 150 -121 389 -349 390 -373 0 -11 -302 -211
-580 -383 -290 -181 -330 -213 -330 -272 0 -21 7 -48 15 -60 41 -58 413 -123
706 -123 71 0 129 -4 129 -8 0 -20 -148 -191 -279 -323 -196 -196 -397 -342
-587 -426 -268 -119 -668 -44 -965 179 -452 341 -672 1009 -508 1545 12 38 43
115 71 172 52 109 55 140 20 168 -48 36 -118 2 -188 -90 -80 -106 -135 -230
-176 -392 -20 -79 -23 -115 -22 -295 0 -234 13 -312 85 -525 110 -323 330
-609 624 -810 169 -116 388 -197 648 -240 20 -3 37 -9 37 -13 -1 -13 -230
-143 -382 -216 -1062 -511 -2130 -402 -3123 318 -62 44 -188 142 -389 299
-169 133 -251 170 -320 147 -52 -17 -77 -40 -168 -158 -106 -139 -347 -380
-468 -469 -115 -85 -244 -165 -248 -154 -2 5 17 53 41 107 186 416 225 823
121 1253 -42 170 -141 448 -206 574 -19 38 -19 39 -1 33 27 -10 175 -105 238
-151 163 -122 365 -326 505 -510 34 -44 77 -88 96 -99 31 -16 40 -17 81 -6 80
23 157 98 367 360 574 715 1114 1088 1906 1315 321 92 613 143 1075 189 105
10 553 -3 640 -18z m-519 -3634 c-84 -209 -175 -367 -303 -529 -76 -96 -294
-312 -300 -297 -2 6 21 114 52 240 91 371 54 308 292 497 255 202 297 232 301
214 1 -7 -18 -64 -42 -125z"/>
<path d="M6619 6182 c-106 -35 -191 -111 -238 -212 -23 -48 -26 -68 -26 -160
0 -99 2 -109 33 -172 66 -134 176 -200 337 -202 81 0 97 3 157 31 79 37 138
95 181 178 29 56 32 67 32 165 0 93 -3 111 -27 162 -81 174 -279 266 -449 210z
m240 -206 c55 -29 67 -105 25 -155 -56 -67 -164 -22 -164 69 0 33 6 48 29 71
33 32 67 37 110 15z"/>
<path d="M4945 5791 c-41 -24 -80 -72 -112 -135 -90 -178 -64 -404 62 -526 19
-18 35 -38 35 -43 0 -4 -14 -28 -31 -53 -17 -25 -42 -70 -57 -102 -23 -50 -26
-70 -27 -162 0 -97 2 -110 31 -170 56 -119 149 -200 230 -200 33 0 47 5 58 22
25 35 20 51 -39 122 -122 150 -114 324 24 479 40 46 50 64 45 80 -4 12 -42 56
-84 97 -63 61 -79 84 -91 125 -30 108 -11 230 52 330 43 68 47 98 16 129 -31
31 -70 33 -112 7z"/>
<path d="M4245 5742 c-64 -11 -134 -96 -166 -205 -32 -105 -25 -238 19 -331
17 -37 50 -90 72 -116 l41 -48 -40 -62 c-96 -148 -105 -320 -25 -480 71 -141
220 -231 302 -180 27 17 32 25 32 59 0 37 -5 43 -58 84 -127 98 -163 267 -88
415 14 27 48 75 77 106 54 59 66 99 36 120 -8 6 -35 25 -60 43 -139 97 -174
267 -91 443 39 83 44 111 24 135 -12 15 -45 22 -75 17z"/>
<path d="M3651 5218 c-48 -13 -124 -97 -167 -182 -80 -163 -50 -375 71 -505
86 -92 191 -125 240 -76 37 36 32 61 -25 113 -66 60 -106 123 -126 201 -26
101 -5 190 73 316 53 86 53 116 2 134 -18 6 -32 11 -33 10 -1 0 -16 -5 -35
-11z"/>
<path d="M5325 4201 c-334 -60 -621 -189 -797 -359 -82 -79 -123 -140 -138
-207 -19 -86 25 -161 119 -201 200 -85 608 -142 741 -103 76 22 157 112 223
249 68 141 111 266 132 384 43 248 -2 286 -280 237z m38 -268 c-15 -95 -99
-285 -155 -349 l-32 -37 -91 7 c-139 9 -405 71 -421 98 -15 24 144 127 305
199 121 54 319 118 368 119 31 0 32 -1 26 -37z"/>
</g>
</svg>
